<svg xmlns="http://www.w3.org/2000/svg" width="432" height="144" version="1.1" viewBox="0 0 324 108">
    <g id="surface280">
        <path fill="#fff" fill-opacity="1" fill-rule="nonzero" stroke="none" d="M123.652 17.914C170 4.172 215.422 6.461 283.38 16.551c76.293-8.637 155.644 11.379 105.754 31.078 65.933 16.324 2.105 43.121-50.672 38.25 27.57 9.547-52.883 27.883-133.293 10.59-108.492 16.336-143.691 1.86-155.324-12.297-83.239-5.809-26.973-39.184-5.45-44.055-64.671-15.328 27.477-32.59 79.258-22.203zm0 0" transform="scale(.75)"/>
        <path fill="none" stroke="#000" stroke-linecap="butt" stroke-linejoin="miter" stroke-miterlimit="10" stroke-opacity="1" stroke-width="1.5" d="M93.934 13.884c35.506-9.399 66.648-9.677 120.132-.917M95.62 11.897c30.202-10.827 67.143-7.503 115.148-1.904m0 0c56.737-4.708 117.206 10.45 78.2 23.994m-77.874-23.47c55.04-8.445 114.202 6.226 76.91 25.055m0 0c49.823 11.256 2.505 30.311-39.77 29.766m40.239-30.01c48.295 14.36-.698 30.473-38.813 26.588m0 0c21.328 8.429-41.672 22.828-100.485 9.557m99.541-8.464c20.897 7.661-39.695 20.985-101.588 6.038m0 0C66.522 81.185 37.278 71.104 31.135 57.754m116.848 9.506C67.174 82.594 40.807 72.105 32.167 59.531m0 0c-61.805-3.207-22.23-28.53-5.763-32.955m6.525 34.3c-63.923-6.29-19.605-32.49-2.567-36.662m0 0C-17.766 12.52 49.342.677 88.33 6.41M28.69 25.172C-18.278 13.96 50.508-1.526 92.03 10.022m-.448.469c1.35-.832 1.47 1.433 1.931 2.869m-1.658-3.06c.873 2.365 1.657 3.59 1.948 3.54"/>
    </g>
    <defs xmlns="http://www.w3.org/2000/svg">
        <filter id="dsFilterNoBlur" width="150%" height="150%">
            <feOffset dx="3" dy="3" in="SourceGraphic" result="offOut"/>
            <feColorMatrix in="offOut" result="matrixOut" type="matrix" values="0.2 0 0 0 0 0 0.2 0 0 0 0 0 0.2 0 0 0 0 0 1 0"/>
            <feBlend in="SourceGraphic" in2="matrixOut" mode="normal"/>
        </filter>
        <filter id="dsFilter" width="150%" height="150%">
            <feOffset dx="3" dy="3" in="SourceGraphic" result="offOut"/>
            <feColorMatrix in="offOut" result="matrixOut" type="matrix" values="0.2 0 0 0 0 0 0.2 0 0 0 0 0 0.2 0 0 0 0 0 1 0"/>
            <feGaussianBlur in="matrixOut" result="blurOut" stdDeviation="3"/>
            <feBlend in="SourceGraphic" in2="blurOut" mode="normal"/>
        </filter>
        <marker id="iPointer-o38u4z1bal" fill="#000" markerHeight="7" markerUnits="strokeWidth" markerWidth="8" orient="auto" refX="5" refY="5" viewBox="0 0 10 10">
            <path d="M10 0v10L0 5z"/>
        </marker>
        <marker id="Pointer-o38u4z1bal" fill="#000" markerHeight="7" markerUnits="strokeWidth" markerWidth="8" orient="auto" refX="5" refY="5" viewBox="0 0 10 10">
            <path d="M0 0l10 5-10 5z"/>
        </marker>
    </defs>
    <defs>
        <style type="text/css">
            @font-face{font-family:&quot;xkcd Script&quot;;src:url(./xkcd-script.ttf)}
        </style>
    </defs>
    ??
</svg>
