<svg xmlns="http://www.w3.org/2000/svg" width="720" height="320" version="1.1" viewBox="0 0 540 240">
    <g id="surface109">
        <path fill="#ef5ba1" fill-opacity="1" fill-rule="nonzero" stroke="none" d="M58.5 62.398h648v163.204H252.898L188.102 280v-54.398H58.5zm0 0" transform="scale(.75)"/>
        <path fill="none" stroke="#000" stroke-linecap="butt" stroke-linejoin="miter" stroke-miterlimit="10" stroke-opacity="1" stroke-width="1.5" d="M46.427 46.263c179.223 9.533 359.097 6.437 482.707-.358m-484.62 1.682c108-.735 216.16-.665 486.718-.079m-1.319-2.027c1.21 21.785 3.718 50.958.173 125.091m.847-124.263c.243 25.72-.205 49.023-.12 124.146m2.173-1.752c-113.803-3.65-228.527-2.18-342.034.161m340.5.728c-119.037-2.236-235.185-3.461-341.163-.063m.718-1.558c-18.167 17.671-34.31 29.332-49.072 42.791m47.449-41.35c-16.36 12.515-35.347 27.334-48.123 40.488m.773 1.878c.76-12.536-.216-21.87-1.998-41.3m1.854 39.982c-1.306-10.908.212-19.565-1.73-41.136m2.856.408c-34.468.99-68.194-1.817-99.44.178m97.846-1.678c-36.536 1.186-72.621-.1-97.937 1.245m1.237.281c.922-33.566.8-70.47-1.846-123.527m1.623 123.143c-1.555-29.376-1.286-58.937-.117-121.843m-.34-.697c.015.419.58.184.938.352m-1.125-.405a4.598 4.598 0 0 0 1.219.548"/>
    </g>
    <defs xmlns="http://www.w3.org/2000/svg">
        <filter id="dsFilterNoBlur" width="150%" height="150%">
            <feOffset dx="3" dy="3" in="SourceGraphic" result="offOut"/>
            <feColorMatrix in="offOut" result="matrixOut" type="matrix" values="0.2 0 0 0 0 0 0.2 0 0 0 0 0 0.2 0 0 0 0 0 1 0"/>
            <feBlend in="SourceGraphic" in2="matrixOut" mode="normal"/>
        </filter>
        <filter id="dsFilter" width="150%" height="150%">
            <feOffset dx="3" dy="3" in="SourceGraphic" result="offOut"/>
            <feColorMatrix in="offOut" result="matrixOut" type="matrix" values="0.2 0 0 0 0 0 0.2 0 0 0 0 0 0.2 0 0 0 0 0 1 0"/>
            <feGaussianBlur in="matrixOut" result="blurOut" stdDeviation="3"/>
            <feBlend in="SourceGraphic" in2="blurOut" mode="normal"/>
        </filter>
        <marker id="iPointer-opldokm75i" fill="#000" markerHeight="7" markerUnits="strokeWidth" markerWidth="8" orient="auto" refX="5" refY="5" viewBox="0 0 10 10">
            <path d="M10 0v10L0 5z"/>
        </marker>
        <marker id="Pointer-opldokm75i" fill="#000" markerHeight="7" markerUnits="strokeWidth" markerWidth="8" orient="auto" refX="5" refY="5" viewBox="0 0 10 10">
            <path d="M0 0l10 5-10 5z"/>
        </marker>
    </defs>
    <defs>
        <style type="text/css">
            @font-face{font-family:&quot;xkcd Script&quot;;src:url(./xkcd-script.ttf)}
        </style>
    </defs>
    ??
    <text id="text0" x="73.575" y="81.6" fill="#fff" stroke="none" font-family="xkcd Script" font-size="15">
        Kubernetes is for people building platforms. If you are a
    </text>
    <text id="text1" x="73.575" y="105.6" fill="#fff" stroke="none" font-family="xkcd Script" font-size="15">
        developer building your own platform (AppEngine, Cloud Foundry,
    </text>
    <text id="text2" x="73.575" y="129.6" fill="#fff" stroke="none" font-family="xkcd Script" font-size="15">
        Heroku clone), then Kubernetes is for you.
    </text>
    <text id="text3" x="377.325" y="153.6" fill="#fff" stroke="none" font-family="xkcd Script" font-size="15">
        -
    </text>
    <text id="text4" x="390.825" y="153.6" fill="#fff" stroke="none" font-family="xkcd Script" font-size="15">
        Kelsey Hightower
    </text>
</svg>
