<svg xmlns="http://www.w3.org/2000/svg" xmlns:xlink="http://www.w3.org/1999/xlink" width="288" height="336" version="1.1" viewBox="0 0 216 252">
    <defs>
        <clipPath id="clip1">
            <path d="M0 0h216v252H0z"/>
        </clipPath>
        <g id="surface311" clip-path="url(#clip1)">
            <path fill="none" stroke="#fff" stroke-linecap="butt" stroke-linejoin="miter" stroke-miterlimit="10" stroke-opacity="1" stroke-width="1" d="M4.828.488c-2.254 1.067-2.7 2.453-5.375 5.309M4.707-.38C3.257 1.55 1.277 2.972.145 5.397m16.03-7.53C8.169 5.823 5.759 10.136-1.164 15.777M15.63.112C10.743 4.644 5.38 10.742-1.343 17.917M23.801-1.758C15.27 12.797 4.625 21.246-.9 27.66M24.822-.879C17.976 9.22 11.206 16.285.917 28.641M38.789-1.281C25.922 10.285 11.824 26.617.957 40.152m35.094-41.25C24.17 15.523 10.35 28.965-.168 40.645m47.324-42.79C34.336 10.735 22.238 25.785.672 53.602M45.39.668C32.699 17.57 19.504 34.477 1.25 54.492M59.219-.664C42.489 15.832 27.039 30.59 2.203 63.895M57.836 1.113C37.914 23.672 16.398 45.328-.004 64.903M65.84-1.93C46.352 27.316 24.023 49.23-1.164 77.348M69.164-.348C53.02 17.453 39.68 33.758-.617 76.75M78.957-1.168C46.563 32.57 14.914 67.382-1.215 89.141M77.203-.836C60.641 19.402 42.645 42.5-.336 91.707M86.57.336C52.645 38.156 20.043 82.363-1.102 100.629M88.082-.625c-33.75 40-66.844 80.621-87.687 102.46M101.625-2.546C69.547 34.293 39.254 68.45-1.504 115.36M99.441-.273C63.902 41.379 29.812 81.617.54 114.578M108.781 2.637C85.391 30.793 58.773 58.094-1.074 129.047M110.332-.762C82.273 30.633 54.352 63.211-.031 127.332M118.512-2.426C92.395 34.887 59.145 67.063-1.648 138.941M120.289-.492C88.82 37.273 56.195 75.012.973 138.492M130.352 2.551C99.93 37.156 66.132 73.258 1.07 152.563M130.504-.868C99.707 36.82 67.184 76.117 1.313 151.48M142.68-2.426C91.996 54.543 42.816 112.621 1.062 161.644M140.938-.21C107.489 41.66 71.188 81.945-.867 163.711M151.71 2.26C107.488 54.75 60.59 108.126-.668 173.134M152.125.875C103.543 57.063 55.235 116.254-.043 176.258M164.961 1.89C116.227 54.793 68.59 110.293 2.582 186.469M163.875.367C98.098 74.937 35.062 149.297-.449 188.582M175.93-2.641C143.555 39.297 108.273 80.957.48 202M174.578 1.328c-64.637 69.61-128.973 141.55-175.8 198.195m187.8-197.656C133.378 56.891 81.668 115.11 1.391 209.953M184.64 1.07C121.82 70.61 60.488 142.16.387 211.02M195.648 2.293C131.68 74.895 61.684 151.012.141 221.852M194.92-.574c-42.823 47.89-85.144 97.578-193.577 223.703M208.199-2.351C149.516 62.858 93.695 124.655 1.59 234.57M206.177-.723C161.96 52.11 115.914 105.16-1.2 235.363M216.37 1.273C173.934 49.484 132.137 105.746-1.44 246.277M217.28-.426C147.61 78.172 79.661 155.04 1.258 248.48m213.18-237.542C144.207 95.573 72 181.651 5.948 252.688M216.141 12.91C161.492 76.71 107.137 141.43 7.598 251.535M218.172 23.77C163.055 81.398 112.113 142.582 19.777 251.062m196.961-226.21C162.45 87.25 107.368 151.074 17.645 250.613m196.37-212.5C173.47 84.36 132.782 133.965 30.77 254.207m184.132-216.7C157.13 105.356 97.5 174.5 28.477 253.243m189.3-204.664c-36 42.777-71.343 84.742-179.222 203.676M215.575 48.14C165.101 108.402 114.32 164.52 40.796 253.188m176.996-190.34c-40.621 40.465-74.457 83.453-167.684 189.086M217.035 61.832c-56.793 65.887-115.094 133.316-167.703 189.832M215.801 72.617c-40.672 54.778-88.774 102.903-155.25 178.988M216.223 73.742c-32.82 35.285-65.309 74.95-154.524 179.61M215.504 84.516c-30.234 42.328-64.074 81.593-143 168.191M217.172 85.984c-50.055 53.192-95.734 107.77-146.512 165.207M213.39 98.125c-43.867 47.25-84.867 97.91-129.722 152.895M216.055 96.895C163.633 155.93 113.902 214.434 82.98 252.825m132.188-144.981c-22.844 31.62-47.871 61.113-125.23 143.777m126.937-142.375c-33.871 39.914-68.203 79.492-125.594 143.664m126.989-133.1c-31.122 36.718-62.848 74.59-116.133 129.55m113.34-125.75c-26.422 30.055-52.903 59.891-112.48 127.754m112.608-118.34c-31.984 39.797-67.914 79.692-100.64 117.301m100.683-114.472c-29.808 35.886-63.109 70.535-102.601 116.191m100.496-104.39c-20.957 31.773-52.77 63.613-91.234 104.136m92.379-103.984c-29.422 35.515-60.68 72.226-89.282 105.289m89.422-92.801c-18.594 19.437-32.676 37.23-78.086 89.746m80.11-91.144c-31.5 35.566-61.934 70.996-81.586 92.34m79.504-82.415c-25.547 35.914-55.32 62.633-71.286 82.41m71.614-80.953c-13.739 19.86-28.864 36.703-70.043 82.036m70.996-70.528c-18.79 25.469-38.043 51.832-59.801 70.149m58.492-68.66c-11.87 18.386-26.59 32.788-59.465 68.777m59.297-54.313c-15.238 15.32-25.617 28.27-48.363 54.563m49.648-56.942c-11.386 14.532-22.574 25.485-48.609 57.711m46.953-43.98c-6.078 8.746-14.973 22.992-38.66 45.5m39.227-46.203c-11.41 16.312-20.848 28.343-37.528 42.61m39.09-30.333c-9.648 9.387-15.2 18.059-29.86 30.926m30.903-32.813c-10.34 12.286-19.402 24.934-29.543 33.461m29.723-19.968c-6.703 3.117-10.555 6.773-17.98 22.167m16.507-23.382c-5.98 5.523-11.574 14.308-16.18 20.539m16.547-8.18c-.89.867-2.308-.121-8.23 9.2m8.21-7.915c-2.148 1.567-4.722 3.863-7.19 7.957"/>
        </g>
        <pattern id="pattern0" width="216" height="252" patternUnits="userSpaceOnUse">
            <use xlink:href="#surface311"/>
        </pattern>
        <clipPath id="clip2">
            <path d="M0 0h216v252H0z"/>
        </clipPath>
        <g id="surface313" clip-path="url(#clip2)">
            <path fill="none" stroke="#fff" stroke-linecap="butt" stroke-linejoin="miter" stroke-miterlimit="10" stroke-opacity="1" stroke-width="1" d="M3.445.055c-.773 1.047-1.894 4.433-4.074 4.48M4 .051C3.375 1.332 1.55 3.348-.277 4.92M14.816-.276C8.72 2.258 5.036 11.219.344 17.93M13.598-1.113C8.883 4.727 3.992 9.898-.797 17.477M25.215 1.223c-3.82 6.793-10.524 12.601-26.91 29.375M26.43-.82C18.805 6.77 14.516 13.445.492 29.836M36.055.414C24.59 15.114 15.262 25.117 2.293 43.871M36.75.34C23.3 15.684 8.227 32.488.312 41.102M44.388 2.316C37.91 15.441 22.414 27.371-1.59 55.852M47.328.324C34.004 14.418 20.207 29.79-.148 52.391M56.086-.137C39.867 22.426 18.902 46.461-.695 65.613M56.985-.453C37.57 23.699 18.3 45.523.534 66.78m65.43-69.25C48.991 21.62 35.538 37.57-1.435 80.933M67.281-.602C48.871 22.016 29.867 44.848 1.223 79.27M79.438-.152c-28.02 30.46-48.754 57.894-77.934 92.367M77.477-.18C47.914 35.105 17.699 71.426.844 90.293M86.64.93C64.199 27.973 42.738 55.313-2.52 102.23M89.76-1.016C68.974 20.504 52.364 42.293.11 103.394M102.29 2.09C71.086 31.14 42.543 63.824.906 113.012M100.148-.508c-23.714 24.719-44.574 50.988-100.53 116m110.39-116.62C76.468 38.077 43.89 78.901-.82 129.68M109.832.207C83.582 32.043 56.738 63.668-.305 126.727M118.25-2.355C86.816 41.515 48.512 83.75 2.695 138.277M121.703.391C86.215 39.125 53.324 79.023-.66 139.438M133.133-.59C88.102 52.824 42.414 100.184 2.785 152.02M132.72.469C78.676 56.94 29.957 116.094 1.293 152.305M142.605-1.085C93.953 50.694 46.675 105.354-.62 161.542m142-161.777C110.859 35.648 80.105 71.625-.781 163.039M151.39.66C93.484 70.762 33.105 139.047-1.676 175.094M151.66-.145C109.602 46.945 69.422 96.082.29 174.406M166.104 2.546C106.531 66.23 51.094 128.142.883 189.43M163.113-.45C110.625 59.646 56.403 120.84-.234 187.247M175.69-.102C123.101 56.523 69.707 116.918.75 198.398M174.89.438C128.47 49.273 88.294 98.727-1.308 201.07M182.906-1.664c-51.984 61.031-99.238 116.477-185.64 216.55M185.25.114C122.7 71.316 60.957 141.211-1.332 211.86M193.195-.05C152.961 46.121 113.56 94.086 2.617 227.168M194.984 1.262C142.36 58.496 89.7 118.234-.898 223.797M208.484-2.75C146.121 65.86 86.848 134.383.57 237.762M206.215-.395C153.852 57.207 100.633 116.59.547 236.715M215.465 1.988C170.335 52.2 128.94 101.953-1.008 247.2M215.645.223C168.594 55.164 122.754 110.922-.242 248.715M217.957 11.359C156.641 81.68 97.039 149 7.633 250.562M214.789 12.708C134.22 103.918 56.527 195.543 7.762 252.023m209.96-228.078C141.509 115.2 65.833 201.54 17.283 253.02M217.167 26.062C141.128 106.32 70.023 190.965 18.434 252.59M216.348 35.992C174.71 89.852 130.297 141.414 30.5 254.132M215.172 37.017c-42.879 50.347-84.8 98.996-184.758 215.578m187.45-201.649c-44.38 44.703-77.489 82.711-177.665 202.297M217.121 48.13C146.285 125.004 80.79 203.152 38.918 252.445m178.144-191.86c-35.578 44.903-67.851 84.407-166.085 191.72M217.07 61.46c-51.136 56.02-99.828 113.164-166.847 189.902M217.957 73.238C152.383 145.324 90.09 211.234 61.73 254.098m154.485-179.16c-47.043 54.007-96.473 107.23-156.195 176.66M216.828 83.043c-38.137 47.09-78.61 87.965-147.937 170.094M215.348 85.609c-51.973 63.762-108.176 127.036-143.27 167.504m142.453-152.902c-47.554 54.965-92.168 110.254-130.195 153.344m131.703-156.04c-35.996 40.274-69.758 79.743-135.242 153.227m134-138.469c-33.899 38.735-72.418 81.297-121.027 141.032m122.332-143.399c-29.114 34.356-57.797 65.387-123.243 140.832M213.906 119.98C189.672 152.95 164 179.414 104.57 251.055m110.703-128.52c-46.18 52.113-88.832 100.778-111.207 130.758m112.121-119.465c-40.535 46.121-78.171 91.137-104.82 117.254m104.434-115.555c-34.953 41.106-69.309 79.942-102.262 115.356m104.395-105.516c-22.707 26.766-48.204 56.281-94.75 105.426m93.804-103.523c-20.648 22.644-43.402 46.832-93.242 105.863m94.734-94.266c-31.414 30.774-60.234 65.5-82.535 94.442m80.727-93.145c-17.371 18.336-33.543 38.61-82.77 92.57m81.38-81.582c-22.985 23.97-47.325 54.606-68.352 78.551m70.265-78.691a9164.506 9164.506 0 0 0-71.246 80.558m72.348-66.117c-16.063 15.027-26.813 28.375-63.356 65.649m60.153-66.875c-12.14 16.73-28.465 31.824-57.922 69.152m58.766-60.129c-15.22 19.215-28.57 34.691-46.91 57.742m47.527-56.472c-11.899 15.683-24.903 29.39-49.735 58.207m48.73-47.457c-5.316 12.05-15.804 19.296-37.816 47.183m36.938-43.469c-11.39 14.567-22.094 26.262-38.516 43.059m38.207-34.926c-8.203 13.649-16.527 26.078-24.707 36.551m25.793-32.477c-7.11 8.758-15.234 17.895-28.637 32.153m31.211-22.094c-8.187 9.14-12.507 15.602-20.195 18.473m18.988-18.211c-5.05 8.25-10.367 12.613-17.062 19.691m17.64-7.129c-4.539 3.91-4.058 6.48-8.718 7.258m6.656-7.539c-.516 1.941-2.477 4.035-6.379 8.398"/>
        </g>
        <pattern id="pattern1" width="216" height="252" patternUnits="userSpaceOnUse">
            <use xlink:href="#surface313"/>
        </pattern>
    </defs>
    <g id="surface300">
        <path fill="#fff" fill-opacity="1" fill-rule="nonzero" stroke="none" d="M4.5 8h270v288H4.5zm0 0" transform="scale(.75)"/>
        <path fill="none" stroke="#000" stroke-linecap="butt" stroke-linejoin="miter" stroke-miterlimit="10" stroke-opacity="1" stroke-width="1.5" d="M5.926 5.464c73.513 5.343 147.675 2.247 199.208-.36M4.014 6.788c45.185.043 90.53.117 203.218-.08m-1.319-2.027c2.34 45.662 4.849 95.514.173 218.69m.847-217.86c.536 45.283.087 87.626-.12 217.742m2.173-1.752c-68.232-1.151-137.387.32-204.334.161m202.8.727c-71.6.34-140.307-.882-203.465-.061m.72-1.56c-2.314-74.117-.828-153.194.724-213.56M3.082 222.21C1.736 143.042.877 64.52 4.758 6.346"/>
        <path fill="#ef5ba1" fill-opacity="1" fill-rule="nonzero" stroke="none" d="M22.5 56h99v80h-99zm0 0" transform="scale(.75)"/>
        <path fill="none" stroke="#000" stroke-linecap="butt" stroke-linejoin="miter" stroke-miterlimit="10" stroke-opacity="1" stroke-width="1.5" d="M17.212 42.794c15.38.803 29.707 2.453 70.333-1.776m-73.304 1.363c18.267.343 33.589 1.198 75.762 1.52m.835.888c.92 11.988-.867 28.099.064 59.66m-1.921-60.782c-.135 10.245.401 23.727.397 58.274m.315 2.775c-29.215-1.468-59.38-2.324-75.795-.612m75.642-1.199c-18.073-.65-36.223.767-74.889-.27m-.68 2.297c2.45-23.66-.597-41.982 3.056-62.337m-1.102 59.895c-.28-20.32-.442-38.175-.289-59.075"/>
        <path fill="#27bdce" fill-opacity="1" fill-rule="nonzero" stroke="none" d="M157.5 56h99v80h-99zm0 0" transform="scale(.75)"/>
        <path fill="none" stroke="#000" stroke-linecap="butt" stroke-linejoin="miter" stroke-miterlimit="10" stroke-opacity="1" stroke-width="1.5" d="M121.33 39.873c15.717-1.306 32.37-.157 72.234.077m-73.778-.126c28.676 2.006 58.699 1.695 74.862.591m-2.63.345c1.122 13.914 4.227 24.61.794 58.6m.055-59.156c.968 20.508 1.424 40.307.624 60.247m1.462.57c-19.807-3.234-42.817-3.149-76.477-2.979m74.681 1.424c-29.61.53-58.02-.718-74.068.407m-.867.938c-.062-21.765-.891-42.833-.355-61.14m1.998 60.879c-.858-18.03.75-31.848.533-60.378"/>
        <path fill="url(#pattern0)" fill-rule="nonzero" stroke="none" d="M22.5 200h99v80h-99zm0 0" transform="scale(.75)"/>
        <path fill="none" stroke="#000" stroke-linecap="butt" stroke-linejoin="miter" stroke-miterlimit="10" stroke-opacity="1" stroke-width="1.5" d="M14.806 149.001c20.776-.827 41.365 1.537 74.913 2.189m-74.235-.721c19.066-.46 36.946-.64 74.097-.709m.504-.844c-1.583 14.845 1.025 28.248-1.433 62.006m1.723-61.323c-1.155 13.027-1.31 27.223-1.172 60.793m-.038-.082c-23.086.812-45.085.738-73.629.323m74.573-.006c-16.005-1.371-31.518-1.544-73.415-.947m-1.562-1.804c3.167-13.248-.533-28.83-1.303-56.734m1.086 58.964c1.55-15.584 1.866-29.4 1.782-59.57"/>
        <path fill="url(#pattern1)" fill-rule="nonzero" stroke="none" d="M157.5 200h99v80h-99zm0 0" transform="scale(.75)"/>
        <path fill="none" stroke="#000" stroke-linecap="butt" stroke-linejoin="miter" stroke-miterlimit="10" stroke-opacity="1" stroke-width="1.5" d="M119.11 150.152c20.973-2.677 44.132.741 73.116.153m-74.61-.504c19.13-1.913 38.223-.255 74.281-.585m1.98-.61c.698 22.315-2.015 43.165-3.952 61.511m2.412-60.395c-1.014 22.506-1.333 43.515.56 59.422m-3.018 1.981c-15.595.615-37.275.627-71.903-3.077m74.282.86c-22.494 1.218-44.783.79-74.646 1.865m-.214-1.543c-.058-17.502-.421-31.8-1.42-59.723m1.306 60.651c-.281-14.637-.155-27.498-.135-60.624m-63.524-34.749c-1.315 6.89-.175 10.808-.618 20.92m-.487-22.004c-.6 5.698-.386 12.258-1.476 23.812m109.18-22.822c-.234 2.22-.284 8.206-.199 22.254m-.624-24.16c.724 4.953-.474 13.28-.662 23.615"/>
    </g>
    <defs xmlns="http://www.w3.org/2000/svg">
        <filter id="dsFilterNoBlur" width="150%" height="150%">
            <feOffset dx="3" dy="3" in="SourceGraphic" result="offOut"/>
            <feColorMatrix in="offOut" result="matrixOut" type="matrix" values="0.2 0 0 0 0 0 0.2 0 0 0 0 0 0.2 0 0 0 0 0 1 0"/>
            <feBlend in="SourceGraphic" in2="matrixOut" mode="normal"/>
        </filter>
        <filter id="dsFilter" width="150%" height="150%">
            <feOffset dx="3" dy="3" in="SourceGraphic" result="offOut"/>
            <feColorMatrix in="offOut" result="matrixOut" type="matrix" values="0.2 0 0 0 0 0 0.2 0 0 0 0 0 0.2 0 0 0 0 0 1 0"/>
            <feGaussianBlur in="matrixOut" result="blurOut" stdDeviation="3"/>
            <feBlend in="SourceGraphic" in2="blurOut" mode="normal"/>
        </filter>
        <marker id="iPointer-zmcmpvaaja" fill="#000" markerHeight="7" markerUnits="strokeWidth" markerWidth="8" orient="auto" refX="5" refY="5" viewBox="0 0 10 10">
            <path d="M10 0v10L0 5z"/>
        </marker>
        <marker id="Pointer-zmcmpvaaja" fill="#000" markerHeight="7" markerUnits="strokeWidth" markerWidth="8" orient="auto" refX="5" refY="5" viewBox="0 0 10 10">
            <path d="M0 0l10 5-10 5z"/>
        </marker>
    </defs>
    <defs>
        <style type="text/css">
            @font-face{font-family:&quot;xkcd Script&quot;;src:url(./xkcd-script.ttf)}
        </style>
    </defs>
    <g xmlns="http://www.w3.org/2000/svg" id="lines-zmcmpvaaja" fill="none" stroke="#000" stroke-width="2" transform="scale(.75)">
        <g id="group180">
            <path id="path180" marker-end="url(#Pointer-zmcmpvaaja)" marker-start="url(#iPointer-zmcmpvaaja)" d="M67.5 152v32"/>
        </g>
        <g id="group516">
            <path id="path516" marker-end="url(#Pointer-zmcmpvaaja)" marker-start="url(#iPointer-zmcmpvaaja)" d="M211.5 152v32"/>
        </g>
    </g>
    <text id="text0" x="12.825" y="33.6" fill="#000" stroke="none" font-family="xkcd Script" font-size="15">
        cluster
    </text>
    <text id="text1" x="26.325" y="69.6" fill="#fff" stroke="none" font-family="xkcd Script" font-size="15">
        boeing
    </text>
    <text id="text2" x="127.575" y="69.6" fill="#fff" stroke="none" font-family="xkcd Script" font-size="15">
        airbus
    </text>
    <text id="text3" x="26.325" y="177.6" fill="#000" stroke="none" font-family="xkcd Script" font-size="15">
        router-a
    </text>
    <text id="text4" x="127.575" y="177.6" fill="#000" stroke="none" font-family="xkcd Script" font-size="15">
        router-b
    </text>
</svg>
