<?xml version="1.0" encoding="UTF-8" standalone="no"?><svg xmlns="http://www.w3.org/2000/svg" xmlns:xlink="http://www.w3.org/1999/xlink" contentScriptType="application/ecmascript" contentStyleType="text/css" height="550.5248px" preserveAspectRatio="none" style="width:447px;height:550px;" version="1.1" viewBox="0 0 447 550" width="447.6622px" zoomAndPan="magnify"><defs><filter height="300%" id="fs4gkgu9wsh0e" width="300%" x="-1" y="-1"><feGaussianBlur result="blurOut" stdDeviation="1.049618320610687"/><feColorMatrix in="blurOut" result="blurOut2" type="matrix" values="0 0 0 0 0 0 0 0 0 0 0 0 0 0 0 0 0 0 .4 0"/><feOffset dx="2.099236641221374" dy="2.099236641221374" in="blurOut2" result="blurOut3"/><feBlend in="SourceGraphic" in2="blurOut3" mode="normal"/></filter></defs><g><ellipse cx="217.5334" cy="9.4466" fill="#000000" filter="url(#fs4gkgu9wsh0e)" rx="5.2481" ry="5.2481" style="stroke: none; stroke-width: 0.5248091603053435;"/><rect fill="#FEFECE" filter="url(#fs4gkgu9wsh0e)" height="17.8897" rx="6.5601" ry="6.5601" style="stroke: #A80036; stroke-width: 0.7872137404580153;" width="91.3168" x="171.875" y="36.2118"/><text fill="#000000" font-family="sans-serif" font-size="6.2977" lengthAdjust="spacingAndGlyphs" textLength="80.8206" x="177.1231" y="47.3798">NetworkPolicy object found</text><path d="M273.9504,38.5735 L273.9504,43.0344 L263.2379,45.1336 L273.9504,47.2328 L273.9504,51.8312 A0,0 0 0 0 273.9504,51.8312 L441.3645,51.8312 A0,0 0 0 0 441.3645,51.8312 L441.3645,43.8216 L436.1164,38.5735 L273.9504,38.5735 A0,0 0 0 0 273.9504,38.5735 " fill="#FBFB77" filter="url(#fs4gkgu9wsh0e)" style="stroke: #A80036; stroke-width: 0.5248091603053435;"/><path d="M436.1164,38.5735 L436.1164,43.8216 L441.3645,43.8216 L436.1164,38.5735 " fill="#FBFB77" style="stroke: #A80036; stroke-width: 0.5248091603053435;"/><text fill="#000000" font-family="sans-serif" font-size="6.8225" lengthAdjust="spacingAndGlyphs" textLength="156.3931" x="277.0992" y="47.6107">let's ignore policies in other namespaces for now</text><rect fill="#FEFECE" filter="url(#fs4gkgu9wsh0e)" height="17.8897" rx="6.5601" ry="6.5601" style="stroke: #A80036; stroke-width: 0.7872137404580153;" width="180.5344" x="74.2605" y="75.5725"/><text fill="#000000" font-family="sans-serif" font-size="6.2977" lengthAdjust="spacingAndGlyphs" textLength="170.0382" x="79.5086" y="86.7405">Which pods in the namespace are affected by this policy?</text><rect fill="#FEFECE" filter="url(#fs4gkgu9wsh0e)" height="17.8897" rx="6.5601" ry="6.5601" style="stroke: #A80036; stroke-width: 0.7872137404580153;" width="106.0115" x="111.5219" y="114.9332"/><text fill="#000000" font-family="sans-serif" font-size="6.2977" lengthAdjust="spacingAndGlyphs" textLength="95.5153" x="116.77" y="126.1012">policy type Ingress set (or none)?</text><polygon fill="#FEFECE" filter="url(#fs4gkgu9wsh0e)" points="164.5277,154.2939,170.8254,160.5916,164.5277,166.8893,158.23,160.5916,164.5277,154.2939" style="stroke: #A80036; stroke-width: 0.7872137404580153;"/><rect fill="#FEFECE" filter="url(#fs4gkgu9wsh0e)" height="17.8897" rx="6.5601" ry="6.5601" style="stroke: #A80036; stroke-width: 0.7872137404580153;" width="82.395" x="65.0763" y="195.229"/><text fill="#000000" font-family="sans-serif" font-size="6.2977" lengthAdjust="spacingAndGlyphs" textLength="71.8989" x="70.3244" y="206.397">block all incoming traffic</text><rect fill="#FEFECE" filter="url(#fs4gkgu9wsh0e)" height="17.8897" rx="6.5601" ry="6.5601" style="stroke: #A80036; stroke-width: 0.7872137404580153;" width="187.3569" x="3.1489" y="241.4122"/><text fill="#000000" font-family="sans-serif" font-size="6.2977" lengthAdjust="spacingAndGlyphs" textLength="176.8607" x="8.3969" y="252.5802">whitelist any pods/namespaces selected under ingress.from</text><rect fill="#FEFECE" filter="url(#fs4gkgu9wsh0e)" height="17.8897" rx="6.5601" ry="6.5601" style="stroke: #A80036; stroke-width: 0.7872137404580153;" width="77.6718" x="77.9342" y="280.7729"/><text fill="#000000" font-family="sans-serif" font-size="6.2977" lengthAdjust="spacingAndGlyphs" textLength="67.1756" x="83.1823" y="291.9409">policy type Egress set?</text><polygon fill="#FEFECE" filter="url(#fs4gkgu9wsh0e)" points="116.77,320.1336,123.0677,326.4313,116.77,332.729,110.4723,326.4313,116.77,320.1336" style="stroke: #A80036; stroke-width: 0.7872137404580153;"/><rect fill="#FEFECE" filter="url(#fs4gkgu9wsh0e)" height="17.8897" rx="6.5601" ry="6.5601" style="stroke: #A80036; stroke-width: 0.7872137404580153;" width="80.8206" x="101.5506" y="361.0687"/><text fill="#000000" font-family="sans-serif" font-size="6.2977" lengthAdjust="spacingAndGlyphs" textLength="70.3244" x="106.7987" y="372.2367">block all outgoing traffic</text><rect fill="#FEFECE" filter="url(#fs4gkgu9wsh0e)" height="17.8897" rx="6.5601" ry="6.5601" style="stroke: #A80036; stroke-width: 0.7872137404580153;" width="177.9103" x="76.6221" y="407.2519"/><text fill="#000000" font-family="sans-serif" font-size="6.2977" lengthAdjust="spacingAndGlyphs" textLength="167.4141" x="81.8702" y="418.4199">whitelist any pods/namespaces selected under egress.to</text><rect fill="#FEFECE" filter="url(#fs4gkgu9wsh0e)" height="17.8897" rx="6.5601" ry="6.5601" style="stroke: #A80036; stroke-width: 0.7872137404580153;" width="150.0954" x="90.5296" y="446.6126"/><text fill="#000000" font-family="sans-serif" font-size="6.2977" lengthAdjust="spacingAndGlyphs" textLength="139.5992" x="95.7777" y="457.7806">other NetworkPolicy objects in the namespace?</text><polygon fill="#FEFECE" filter="url(#fs4gkgu9wsh0e)" points="204.938,485.9733,211.2357,492.271,204.938,498.5687,198.6403,492.271,204.938,485.9733" style="stroke: #A80036; stroke-width: 0.7872137404580153;"/><rect fill="#FEFECE" filter="url(#fs4gkgu9wsh0e)" height="17.8897" rx="6.5601" ry="6.5601" style="stroke: #A80036; stroke-width: 0.7872137404580153;" width="52.4809" x="223.3063" y="526.9084"/><text fill="#000000" font-family="sans-serif" font-size="6.2977" lengthAdjust="spacingAndGlyphs" textLength="41.9847" x="228.5544" y="538.0764">All bets are off</text><ellipse cx="204.938" cy="535.8302" fill="none" filter="url(#fs4gkgu9wsh0e)" rx="5.2481" ry="5.2481" style="stroke: #000000; stroke-width: 0.5248091603053435;"/><ellipse cx="205.2004" cy="536.0926" fill="#000000" rx="3.1489" ry="3.1489" style="stroke: none; stroke-width: 0.5248091603053435;"/><!--link start to NetworkPolicy object found--><path d="M217.5334,14.7123 C217.5334,19.6322 217.5334,27.1476 217.5334,33.4775 " fill="none" id="start-NetworkPolicy object found" style="stroke: #A80036; stroke-width: 0.5248091603053435;"/><polygon fill="#A80036" points="217.5334,36.1066,219.6326,31.3833,217.5334,33.4826,215.4342,31.3833,217.5334,36.1066" style="stroke: #A80036; stroke-width: 0.5248091603053435;"/><!--link NetworkPolicy object found to Which pods in the namespace are affected by this policy?--><path d="M205.5056,54.0652 C197.6322,59.9117 187.3002,67.584 178.9808,73.7618 " fill="none" id="NetworkPolicy object found-Which pods in the namespace are affected by this policy?" style="stroke: #A80036; stroke-width: 0.5248091603053435;"/><polygon fill="#A80036" points="176.6914,75.4618,181.735,74.3311,178.7981,73.8974,179.2318,70.9605,176.6914,75.4618" style="stroke: #A80036; stroke-width: 0.5248091603053435;"/><!--link Which pods in the namespace are affected by this policy? to policy type Ingress set (or none)?--><path d="M164.5277,93.4258 C164.5277,98.9726 164.5277,106.1625 164.5277,112.1607 " fill="none" id="Which pods in the namespace are affected by this policy?-policy type Ingress set (or none)?" style="stroke: #A80036; stroke-width: 0.5248091603053435;"/><polygon fill="#A80036" points="164.5277,114.8225,166.6269,110.0992,164.5277,112.1985,162.4284,110.0992,164.5277,114.8225" style="stroke: #A80036; stroke-width: 0.5248091603053435;"/><!--link policy type Ingress set (or none)? to #12--><path d="M164.5277,132.9359 C164.5277,138.633 164.5277,145.9475 164.5277,151.623 " fill="none" id="policy type Ingress set (or none)?-#12" style="stroke: #A80036; stroke-width: 0.5248091603053435;"/><polygon fill="#A80036" points="164.5277,154.2633,166.6269,149.54,164.5277,151.6393,162.4284,149.54,164.5277,154.2633" style="stroke: #A80036; stroke-width: 0.5248091603053435;"/><text fill="#000000" font-family="sans-serif" font-size="5.7729" lengthAdjust="spacingAndGlyphs" textLength="0" x="164.1242" y="148.6579"/><!--link #12 to block all incoming traffic--><path d="M160.8837,163.3164 C152.9721,169.2323 133.8601,183.5232 120.489,193.5214 " fill="none" id="#12-block all incoming traffic" style="stroke: #A80036; stroke-width: 0.5248091603053435;"/><polygon fill="#A80036" points="118.2294,195.2111,123.2692,194.0638,120.3309,193.6397,120.755,190.7014,118.2294,195.2111" style="stroke: #A80036; stroke-width: 0.5248091603053435;"/><text fill="#000000" font-family="sans-serif" font-size="5.7729" lengthAdjust="spacingAndGlyphs" textLength="11.021" x="141.4361" y="183.3368">true</text><!--link block all incoming traffic to whitelist any pods/namespaces selected under ingress.from--><path d="M104.4075,213.2751 C102.9099,220.5966 100.7986,230.9187 99.1844,238.8104 " fill="none" id="block all incoming traffic-whitelist any pods/namespaces selected under ingress.from" style="stroke: #A80036; stroke-width: 0.5248091603053435;"/><polygon fill="#A80036" points="98.6576,241.3858,101.6608,237.179,99.1835,238.8149,97.5475,236.3376,98.6576,241.3858" style="stroke: #A80036; stroke-width: 0.5248091603053435;"/><!--link whitelist any pods/namespaces selected under ingress.from to policy type Egress set?--><path d="M101.3526,259.2655 C104.1883,264.8623 107.8716,272.1319 110.9269,278.1622 " fill="none" id="whitelist any pods/namespaces selected under ingress.from-policy type Egress set?" style="stroke: #A80036; stroke-width: 0.5248091603053435;"/><polygon fill="#A80036" points="112.1936,280.6622,111.9314,275.5001,111.0076,278.3215,108.1862,277.3977,112.1936,280.6622" style="stroke: #A80036; stroke-width: 0.5248091603053435;"/><!--link #12 to policy type Egress set?--><path d="M167.5172,163.9636 C178.9046,177.2274 217.8227,226.6785 195.4914,259.2557 C190.2995,266.8298 171.3218,274.2837 153.3016,279.9196 " fill="none" id="#12-policy type Egress set?" style="stroke: #A80036; stroke-width: 0.5248091603053435;"/><polygon fill="#A80036" points="150.6517,280.7377,155.784,281.3502,153.1589,279.9637,154.5455,277.3386,150.6517,280.7377" style="stroke: #A80036; stroke-width: 0.5248091603053435;"/><text fill="#000000" font-family="sans-serif" font-size="5.7729" lengthAdjust="spacingAndGlyphs" textLength="12.5954" x="202.8387" y="229.52">false</text><!--link policy type Egress set? to #22--><path d="M116.77,298.7756 C116.77,304.4727 116.77,311.7872 116.77,317.4627 " fill="none" id="policy type Egress set?-#22" style="stroke: #A80036; stroke-width: 0.5248091603053435;"/><polygon fill="#A80036" points="116.77,320.103,118.8693,315.3797,116.77,317.4789,114.6708,315.3797,116.77,320.103" style="stroke: #A80036; stroke-width: 0.5248091603053435;"/><text fill="#000000" font-family="sans-serif" font-size="5.7729" lengthAdjust="spacingAndGlyphs" textLength="0" x="116.3666" y="314.4976"/><!--link #22 to block all outgoing traffic--><path d="M119.0948,330.4512 C122.7777,336.8196 130.0858,349.4565 135.4526,358.7366 " fill="none" id="#22-block all outgoing traffic" style="stroke: #A80036; stroke-width: 0.5248091603053435;"/><polygon fill="#A80036" points="136.7719,361.0178,136.2244,355.8781,135.4581,358.7463,132.59,357.9801,136.7719,361.0178" style="stroke: #A80036; stroke-width: 0.5248091603053435;"/><text fill="#000000" font-family="sans-serif" font-size="5.7729" lengthAdjust="spacingAndGlyphs" textLength="11.021" x="130.9399" y="349.1765">true</text><!--link block all outgoing traffic to whitelist any pods/namespaces selected under egress.to--><path d="M146.6267,379.1148 C150.4032,386.4999 155.7409,396.9381 159.7896,404.8555 " fill="none" id="block all outgoing traffic-whitelist any pods/namespaces selected under egress.to" style="stroke: #A80036; stroke-width: 0.5248091603053435;"/><polygon fill="#A80036" points="161.0015,407.2255,160.7201,402.0644,159.8068,404.8892,156.982,403.9759,161.0015,407.2255" style="stroke: #A80036; stroke-width: 0.5248091603053435;"/><!--link whitelist any pods/namespaces selected under egress.to to other NetworkPolicy objects in the namespace?--><path d="M165.5773,425.1052 C165.5773,430.6519 165.5773,437.8419 165.5773,443.8401 " fill="none" id="whitelist any pods/namespaces selected under egress.to-other NetworkPolicy objects in the namespace?" style="stroke: #A80036; stroke-width: 0.5248091603053435;"/><polygon fill="#A80036" points="165.5773,446.5019,167.6765,441.7786,165.5773,443.8779,163.4781,441.7786,165.5773,446.5019" style="stroke: #A80036; stroke-width: 0.5248091603053435;"/><!--link #22 to other NetworkPolicy objects in the namespace?--><path d="M113.2624,329.3978 C98.8944,341.9023 46.4414,391.2268 71.1116,425.0954 C77.1555,433.3928 98.0371,440.5603 118.6353,445.8523 " fill="none" id="#22-other NetworkPolicy objects in the namespace?" style="stroke: #A80036; stroke-width: 0.5248091603053435;"/><polygon fill="#A80036" points="121.4066,446.5537,117.3428,443.3596,118.8628,445.9098,116.3126,447.4298,121.4066,446.5537" style="stroke: #A80036; stroke-width: 0.5248091603053435;"/><text fill="#000000" font-family="sans-serif" font-size="5.7729" lengthAdjust="spacingAndGlyphs" textLength="12.5954" x="67.9628" y="395.3597">false</text><!--link other NetworkPolicy objects in the namespace? to #32--><path d="M175.3069,464.6153 C182.9973,471.793 193.4387,481.5383 199.6531,487.3385 " fill="none" id="other NetworkPolicy objects in the namespace?-#32" style="stroke: #A80036; stroke-width: 0.5248091603053435;"/><polygon fill="#A80036" points="201.5885,489.1448,199.5678,484.3874,199.6702,487.3544,196.7032,487.4567,201.5885,489.1448" style="stroke: #A80036; stroke-width: 0.5248091603053435;"/><text fill="#000000" font-family="sans-serif" font-size="5.7729" lengthAdjust="spacingAndGlyphs" textLength="0" x="196.1074" y="480.2769"/><!--link #32 to All bets are off--><path d="M208.1461,495.4037 C214.3641,501.4753 228.3219,515.1047 238.3114,524.8592 " fill="none" id="#32-All bets are off" style="stroke: #A80036; stroke-width: 0.5248091603053435;"/><polygon fill="#A80036" points="240.253,526.755,238.3402,521.9532,238.3755,524.9218,235.407,524.9571,240.253,526.755" style="stroke: #A80036; stroke-width: 0.5248091603053435;"/><text fill="#000000" font-family="sans-serif" font-size="5.7729" lengthAdjust="spacingAndGlyphs" textLength="11.021" x="229.604" y="515.0162">true</text><!--link All bets are off to NetworkPolicy object found--><path d="M257.0724,526.7816 C263.2773,518.385 271.0639,505.2604 271.0639,492.271 C271.0639,84.4943 271.0639,84.4943 271.0639,84.4943 C271.0639,70.9222 259.7568,61.5114 247.5359,55.3036 " fill="none" id="All bets are off-NetworkPolicy object found" style="stroke: #A80036; stroke-width: 0.5248091603053435;"/><polygon fill="#A80036" points="245.0827,54.1045,248.4044,58.0646,247.4402,55.2568,250.2481,54.2926,245.0827,54.1045" style="stroke: #A80036; stroke-width: 0.5248091603053435;"/><!--link #32 to end--><path d="M204.938,498.6983 C204.938,506.4376 204.938,519.4393 204.938,527.8233 " fill="none" id="#32-end" style="stroke: #A80036; stroke-width: 0.5248091603053435;"/><polygon fill="#A80036" points="204.938,530.4753,207.0372,525.752,204.938,527.8513,202.8387,525.752,204.938,530.4753" style="stroke: #A80036; stroke-width: 0.5248091603053435;"/><text fill="#000000" font-family="sans-serif" font-size="5.7729" lengthAdjust="spacingAndGlyphs" textLength="12.5954" x="205.4628" y="515.0162">false</text><!--
@startuml
skinparamlocked backgroundcolor transparent
skinparamlocked backgroundcolor transparent
scale 550 height
(*) -down-> "NetworkPolicy object found"
note right: let's ignore policies in other namespaces for now
-down-> "Which pods in the namespace are affected by this policy?"
- -> "policy type Ingress set (or none)?"
if "" then
  - ->[true] "block all incoming traffic"
  - -> "whitelist any pods/namespaces selected under ingress.from"
  - -> "policy type Egress set?"
else
  ->[false] "policy type Egress set?"
endif

if "" then
  - ->[true] "block all outgoing traffic"
  - -> "whitelist any pods/namespaces selected under egress.to"
  - -> "other NetworkPolicy objects in the namespace?"
else
  - ->[false] "other NetworkPolicy objects in the namespace?"
endif
  
if "" then
  - ->[true] All bets are off
  - ->"NetworkPolicy object found"
else
  - ->[false] (*)
endif

@enduml

PlantUML version 1.2018.10(Sat Aug 25 17:02:59 GMT 2018)
(GPL source distribution)
Java Runtime: OpenJDK Runtime Environment
JVM: OpenJDK 64-Bit Server VM
Java Version: 1.8.0_181-b13
Operating System: Linux
OS Version: 4.9.125-linuxkit
Default Encoding: UTF-8
Language: en
Country: US
--></g></svg>