<svg xmlns="http://www.w3.org/2000/svg" width="439pt" height="272" version="1.1" viewBox="0 0 439 204">
    <g id="surface117">
        <path fill="#fff" fill-opacity="1" fill-rule="nonzero" stroke="none" d="M167.688 31.137C231.16-.933 293.37 4.41 386.445 27.949c104.489-20.152 213.168 26.555 144.832 72.52 90.301 38.086 2.887 100.613-69.398 89.254 37.762 22.273-72.422 65.054-182.55 24.703-148.587 38.12-196.798 4.336-212.724-28.688-114.003-13.554-36.945-91.437-7.464-102.8C-29.43 47.18 96.773 6.894 167.688 31.136zm0 0" transform="scale(.75)"/>
        <path fill="none" stroke="#000" stroke-linecap="butt" stroke-linejoin="miter" stroke-miterlimit="10" stroke-opacity="1" stroke-width="1.5" d="M126.96 23.8C175.31.657 219.046 2.665 291.367 21.518m-162.724.293c43.052-24.571 92.582-18.957 159.425-3.266m0 0C365.952 5.2 448.413 40.374 395.578 73.614M288.39 19.066C364.576 1.984 445.735 36.673 394.614 75.2m0 0c68.095 27.58 3.089 73.433-53.816 68.022m54.285-68.265c66.568 30.682-.114 73.593-52.857 64.84m0 0c28.971 17.976-56.333 50.71-137.432 20.144m136.485-19.049c28.544 17.207-54.352 48.868-138.53 16.624m0 0c-110.68 28.476-149.68 3.913-159.044-23.59m159.897 21.802c-110.877 31.673-147 6.707-158.863-20.021m0 0c-79.664-5.42-24.492-64.12-2.063-73.415m2.825 74.76c-81.782-8.503-21.87-68.08 1.137-77.121m0 0c-68.339-24.745 24.313-53.854 77.647-37.732m-79.319 38.69c-67.18-24.267 27.15-57.018 83.022-35.078m-.234.243c.026-2.868-.642-3.137-1.017-2.527m1.157 2.43c-.202 1.012-.421.397-1.005-2.179"/>
    </g>
    <defs xmlns="http://www.w3.org/2000/svg">
        <filter id="dsFilterNoBlur" width="150%" height="150%">
            <feOffset dx="3" dy="3" in="SourceGraphic" result="offOut"/>
            <feColorMatrix in="offOut" result="matrixOut" type="matrix" values="0.2 0 0 0 0 0 0.2 0 0 0 0 0 0.2 0 0 0 0 0 1 0"/>
            <feBlend in="SourceGraphic" in2="matrixOut" mode="normal"/>
        </filter>
        <filter id="dsFilter" width="150%" height="150%">
            <feOffset dx="3" dy="3" in="SourceGraphic" result="offOut"/>
            <feColorMatrix in="offOut" result="matrixOut" type="matrix" values="0.2 0 0 0 0 0 0.2 0 0 0 0 0 0.2 0 0 0 0 0 1 0"/>
            <feGaussianBlur in="matrixOut" result="blurOut" stdDeviation="3"/>
            <feBlend in="SourceGraphic" in2="blurOut" mode="normal"/>
        </filter>
        <marker id="iPointer-o38u4z1bal" fill="#000" markerHeight="7" markerUnits="strokeWidth" markerWidth="8" orient="auto" refX="5" refY="5" viewBox="0 0 10 10">
            <path d="M10 0v10L0 5z"/>
        </marker>
        <marker id="Pointer-o38u4z1bal" fill="#000" markerHeight="7" markerUnits="strokeWidth" markerWidth="8" orient="auto" refX="5" refY="5" viewBox="0 0 10 10">
            <path d="M0 0l10 5-10 5z"/>
        </marker>
    </defs>
    <defs>
        <style type="text/css">
            @font-face{font-family:&quot;xkcd Script&quot;;src:url(./xkcd-script.ttf)}
        </style>
    </defs>
    ??
    <text id="text0" x="154.575" y="69.6" fill="#000" stroke="none" font-family="xkcd Script" font-size="15">
        Kubernetes
    </text>
</svg>
