<svg xmlns="http://www.w3.org/2000/svg" width="466pt" height="320" version="1.1" viewBox="0 0 466 240">
    <g id="surface125">
        <path fill="#27bdce" fill-opacity="1" fill-rule="nonzero" stroke="none" d="M4.5 62.398h603v163.204H486.898V280l-60.296-54.398H4.5zm0 0" transform="scale(.75)"/>
        <path fill="none" stroke="#000" stroke-linecap="butt" stroke-linejoin="miter" stroke-miterlimit="10" stroke-opacity="1" stroke-width="1.5" d="M5.926 46.263c166.638 8.572 333.93 5.475 448.958-.358M4.014 47.587c100.522-.557 201.205-.486 452.968-.079m-1.319-2.027c1.21 22.517 3.718 51.691.173 125.091m.847-124.263c.242 25.843-.205 49.146-.12 124.146m2.173-1.752c-31.151-6.006-63.222-4.535-92.285.161m90.75.728c-32.994-4.663-63.102-5.887-91.412-.063m.718-1.558c-.967 19.403.097 31.063-.472 42.791m-1.151-41.35c1.336 9.797.044 24.615.477 40.488m.771 1.878c-9.296-14.534-20.33-23.868-47.22-41.3m47.079 39.982c-10.675-12.77-18.524-21.428-46.957-41.136m2.857.408c-110.91 1.323-221.077-1.483-318.815.178m317.22-1.678c-117.049 1.687-233.654.404-317.311 1.245m1.237.281c.922-34.085.8-70.99-1.846-123.527m1.623 123.143c-1.556-29.075-1.286-58.635-.117-121.843m-.34-.697c.015.264.58.03.938.352m-1.125-.405c.536.173.957.302 1.218.548"/>
    </g>
    <defs xmlns="http://www.w3.org/2000/svg">
        <filter id="dsFilterNoBlur" width="150%" height="150%">
            <feOffset dx="3" dy="3" in="SourceGraphic" result="offOut"/>
            <feColorMatrix in="offOut" result="matrixOut" type="matrix" values="0.2 0 0 0 0 0 0.2 0 0 0 0 0 0.2 0 0 0 0 0 1 0"/>
            <feBlend in="SourceGraphic" in2="matrixOut" mode="normal"/>
        </filter>
        <filter id="dsFilter" width="150%" height="150%">
            <feOffset dx="3" dy="3" in="SourceGraphic" result="offOut"/>
            <feColorMatrix in="offOut" result="matrixOut" type="matrix" values="0.2 0 0 0 0 0 0.2 0 0 0 0 0 0.2 0 0 0 0 0 1 0"/>
            <feGaussianBlur in="matrixOut" result="blurOut" stdDeviation="3"/>
            <feBlend in="SourceGraphic" in2="blurOut" mode="normal"/>
        </filter>
        <marker id="iPointer-opldokm75i" fill="#000" markerHeight="7" markerUnits="strokeWidth" markerWidth="8" orient="auto" refX="5" refY="5" viewBox="0 0 10 10">
            <path d="M10 0v10L0 5z"/>
        </marker>
        <marker id="Pointer-opldokm75i" fill="#000" markerHeight="7" markerUnits="strokeWidth" markerWidth="8" orient="auto" refX="5" refY="5" viewBox="0 0 10 10">
            <path d="M0 0l10 5-10 5z"/>
        </marker>
    </defs>
    <defs>
        <style type="text/css">
            @font-face{font-family:&quot;xkcd Script&quot;;src:url(./xkcd-script.ttf)}
        </style>
    </defs>
    ??
    <text id="text0" x="33.075" y="81.6" fill="#fff" stroke="none" font-family="xkcd Script" font-size="15">
        I&apos;m a little bit sad how complex Kubernetes is right now.
    </text>
    <text id="text1" x="33.075" y="105.6" fill="#fff" stroke="none" font-family="xkcd Script" font-size="15">
        In some sense Kubernetes is not for end users, it&apos;s for
    </text>
    <text id="text2" x="33.075" y="129.6" fill="#fff" stroke="none" font-family="xkcd Script" font-size="15">
        people who set up clusters and clusters are for end users.
    </text>
    <text id="text3" x="323.325" y="153.6" fill="#fff" stroke="none" font-family="xkcd Script" font-size="15">
        -
    </text>
    <text id="text4" x="336.825" y="153.6" fill="#fff" stroke="none" font-family="xkcd Script" font-size="15">
        Wojtek Cichoń
    </text>
</svg>
