<svg xmlns="http://www.w3.org/2000/svg" xmlns:xlink="http://www.w3.org/1999/xlink" width="288" height="368" version="1.1" viewBox="0 0 216 276">
    <defs>
        <clipPath id="clip1">
            <path d="M0 0h216v276H0z"/>
        </clipPath>
        <g id="surface333" clip-path="url(#clip1)">
            <path fill="none" stroke="#fff" stroke-linecap="butt" stroke-linejoin="miter" stroke-miterlimit="10" stroke-opacity="1" stroke-width="1" d="M5.016.508C2.672 1.618 2.21 3.058-.566 6.023M4.89-.395C3.383 1.61 1.324 3.09.152 5.61m16.192-7.742C8.289 5.875 5.836 10.238-1.164 15.973M15.796.113C10.86 4.703 5.447 10.867-1.343 18.11M23.97-1.758C15.379 12.872 4.668 21.387-.898 27.855M24.988-.879C18.098 9.273 11.285 16.387.918 28.836M38.957-1.281c-12.922 11.625-27.066 28.02-38 41.629M36.219-1.098C24.28 15.59 10.406 29.098-.168 40.836m47.492-42.98C34.464 10.78 22.328 25.882.672 53.795M45.559.669C32.816 17.628 19.57 34.598 1.25 54.688M59.39-.664C42.618 15.883 27.126 30.688 2.204 64.086m55.8-62.973C38.028 23.743 16.454 45.465-.003 65.098M66.008-1.93C46.465 27.38 24.082 49.36-1.164 77.543M69.332-.347C53.152 17.495 39.777 33.842-.618 76.94M79.126-1.168c-32.46 33.813-64.176 68.7-80.34 90.5M77.371-.836C60.77 19.445 42.734 42.586-.336 91.902M86.738.336C52.746 38.234 20.078 82.52-1.102 100.82M88.254-.625C54.437 39.453 21.274 80.148.394 102.031m101.4-104.578C69.664 34.352 39.316 68.57-1.504 115.551M99.613-.273C64.012 41.449 29.863 81.754.54 114.773M108.95 2.637C85.52 30.836 58.867 58.18-1.074 129.242M110.5-.762C82.402 30.684 54.434 63.308-.031 127.528M118.679-2.427C92.52 34.934 59.23 67.156-1.647 139.137M120.457-.493C88.945 37.329 56.273 75.118.973 138.685M130.52 2.55C100.055 37.203 66.219 73.35 1.07 152.758M130.672-.867C99.832 36.867 67.27 76.215 1.312 151.676M142.849-2.426C92.109 54.614 42.868 112.754 1.062 161.84M141.106-.21C107.613 41.706 71.273 82.042-.867 163.905M151.879 2.262C107.605 54.809 60.656 108.242-.668 173.328M152.293.875c-48.637 56.254-97 115.508-152.336 175.578M165.129 1.891C116.344 54.85 68.656 110.406 2.582 186.66M164.043.366C98.199 75.016 35.098 149.45-.449 188.777M176.098-2.64C143.695 39.336 108.375 81.035.48 202.191M174.75 1.328C110.047 71.008 45.652 143.02-1.223 199.718m187.97-197.85c-53.243 55.077-105 113.347-185.356 208.28M184.809 1.07C121.934 70.676 60.543 142.293.387 211.215M195.817 2.293C131.792 74.961 61.741 151.141.14 222.047M195.09-.574c-42.86 47.933-85.22 97.66-193.746 223.898M208.367-2.352C149.637 62.91 93.77 124.758 1.59 234.762M206.348-.723C162.094 52.152 116.012 105.247-1.2 235.56M216.37 1.469c-42.437 48.21-84.234 104.469-217.812 245M217.28-.231C147.61 78.368 79.661 155.235 1.258 248.673m213.18-237.54C141.464 99.052 66.476 188.333-1.927 261.938M216.141 13.106C159.465 79.281 102.969 146.47-.277 260.79M218.172 23.965C158.3 86.883 102.598 153.543 1.305 272.508M216.738 25.047C157.36 93.375 97.145 163.102-.828 272.059m214.844-233.75c-45.243 51.77-90.598 106.742-203.942 239.898M214.902 37.699C150.566 113.285 84.29 190.08 7.782 277.242M217.776 48.77c-39.93 47.628-79.52 94.472-199.918 227.484M215.574 48.336C159.211 115.48 102.496 178.422 20.102 277.187M217.793 63.043c-45.195 45.414-83.512 93.555-188.379 212.89M217.035 62.028C153.22 136.473 87.645 212.27 28.637 275.664M215.8 72.813c-46.375 61.511-100.422 116.484-175.946 202.792M216.223 73.934c-37.309 40.578-74.164 85.27-175.22 203.418m174.5-192.645c-34.82 47.707-73.57 92.629-163.694 192M217.172 86.176c-56.957 61.047-109.32 123.308-167.207 189.015M213.39 98.316c-50.7 54.586-98.274 112.813-150.414 176.704M216.055 97.086C155.508 164.98 97.96 232.473 62.289 276.824M215.168 108.04c-27.035 36.617-56.227 70.895-145.926 167.582m147.633-166.18c-39.488 46.707-79.531 92.852-146.285 167.47m147.68-156.907c-36.852 43.55-74.348 88.062-136.829 153.355m134.036-149.554C184.289 159.398 153 194.77 82.3 275.363M215.605 133.22c-39.082 47.672-82.011 95.62-121.335 141.105m121.378-138.277c-36.046 43.183-75.75 85.207-123.296 139.996m121.191-128.195c-26.883 38.761-64.863 77.699-111.93 127.941M214.688 148c-36.504 43.348-74.754 88.102-109.977 129.094m110.117-116.61c-23.066 24.157-41.496 46.953-98.781 113.555m100.805-114.95c-39.364 44.962-77.809 89.61-102.282 116.145m100.2-106.218c-33.614 45.32-71.48 81.347-91.98 106.214m92.308-104.757c-17.957 25.015-37.586 47.043-90.739 105.84m91.692-94.333c-25.653 33.38-51.977 67.88-80.492 93.954m79.183-92.465c-16.558 24.074-36.281 44.238-80.16 92.582m79.992-78.117c-21.43 22.23-37.836 42.113-69.058 78.367m70.343-80.746c-16.129 19.71-31.914 35.957-69.3 81.515m67.644-67.785c-10.488 13.77-23.98 33.309-59.355 69.305m59.922-70.008c-17.59 23.418-33.41 42.793-58.22 66.414m59.782-54.137c-16.035 16.426-27.844 32.301-50.555 54.73m51.598-56.616c-17.148 19.851-32.938 40.238-50.238 57.265m50.418-43.777c-11.399 8.574-19.946 17.629-38.676 45.976m37.203-47.187c-12.95 13.328-25.273 29.855-36.875 44.344m37.668-32.793c-4.566 8.203-10.344 9.73-30.355 34.394m30.32-31.89c-9.13 9.972-19.281 20.351-28.328 31.976m26.402-20.668c-4.687 3.254-8.789 7.094-17.105 20.371m17.644-19.347c-4.539 3.691-7.89 7.293-15.754 17.195m15.16-6.648c-.433.183-2.5 2.476-4.023 7.023m4.883-6.824c-.95-.2-2.871 1.629-6.406 8.05"/>
        </g>
        <pattern id="pattern0" width="216" height="276" patternUnits="userSpaceOnUse">
            <use xlink:href="#surface333"/>
        </pattern>
    </defs>
    <g id="surface326">
        <path fill="#fff" fill-opacity="1" fill-rule="nonzero" stroke="none" d="M4.5 8h270v320H4.5zm0 0" transform="scale(.75)"/>
        <path fill="none" stroke="#000" stroke-linecap="butt" stroke-linejoin="miter" stroke-miterlimit="10" stroke-opacity="1" stroke-width="1.5" d="M5.926 5.464c73.513 5.343 147.675 2.247 199.208-.36M4.014 6.788c45.185.043 90.53.117 203.218-.08m-1.319-2.027c2.631 50.965 5.138 106.116.173 242.69m.847-241.86c.612 50.164.16 97.387-.12 241.742m2.173-1.752c-68.232-1.151-137.387.32-204.334.161m202.8.727c-71.6.34-140.307-.882-203.465-.061m.72-1.56c-2.477-82.613-.995-170.184.724-237.56M3.082 246.21C1.443 158.303.587 71.042 4.758 6.346"/>
        <path fill="#ef5ba1" fill-opacity="1" fill-rule="nonzero" stroke="none" d="M22.5 72h99v96h-99zm0 0" transform="scale(.75)"/>
        <path fill="none" stroke="#000" stroke-linecap="butt" stroke-linejoin="miter" stroke-miterlimit="10" stroke-opacity="1" stroke-width="1.5" d="M17.212 54.794c15.38.803 29.707 2.453 70.333-1.776m-73.304 1.363c18.267.343 33.589 1.198 75.762 1.52m.835.888c1.075 14.883-.712 33.89.064 71.66m-1.921-72.782c-.08 12.782.457 28.799.397 70.274m.315 2.775c-29.215-1.468-59.38-2.324-75.795-.612m75.642-1.199c-18.073-.65-36.223.767-74.889-.27m-.68 2.297c2.292-27.588-.755-49.837 3.056-74.337m-1.102 71.895c-.243-24.273-.404-46.079-.289-71.075"/>
        <path fill="#27bdce" fill-opacity="1" fill-rule="nonzero" stroke="none" d="M157.5 72h99v96h-99zm0 0" transform="scale(.75)"/>
        <path fill="none" stroke="#000" stroke-linecap="butt" stroke-linejoin="miter" stroke-miterlimit="10" stroke-opacity="1" stroke-width="1.5" d="M121.33 51.873c15.717-1.306 32.37-.157 72.234.077m-73.778-.126c28.676 2.006 58.699 1.695 74.862.591m-2.63.345c1.253 16.755 4.359 30.29.794 70.6m.055-71.156c.897 24.387 1.35 48.064.624 72.246m1.462.571c-19.807-3.234-42.817-3.149-76.477-2.979m74.681 1.424c-29.61.53-58.02-.718-74.068.407m-.867.938c-.158-26.115-.987-51.53-.355-73.14m1.998 72.879c-.811-21.088.797-37.965.533-72.378"/>
        <path fill="url(#pattern0)" fill-rule="nonzero" stroke="none" d="M85.5 200h99v96h-99zm0 0" transform="scale(.75)"/>
        <path fill="none" stroke="#000" stroke-linecap="butt" stroke-linejoin="miter" stroke-miterlimit="10" stroke-opacity="1" stroke-width="1.5" d="M61.202 151.632c24.324 1.583 49.737 1.509 74.874.323m-73.928-.007c15.5-.24 31.493-.413 75.085-.946m-1.562-1.808c2 21.214-1.7 39.446-1.304 75.27m1.088-73.038c1.54 18.695 1.854 37.89 1.78 72.432m-2.795-.593c-25.28-1.986-51.436 1.562-73.667-1.142m74.918 1.131c-21.656.015-45.938 1.051-74.12-.255m.544-.065c-1.661-19.25-1.576-34.104.343-71.226m-1.256 70.6c1.177-23.85 1.13-47.418.404-70.94m-18.61-10.306c-.9 12.708-2.162 25.842-2.502 45.808m.996-46.758c1.424 12.665 1.492 25.454.915 48.455m-.431.495c6.328-2.154 11.32.489 15.229-.402m-14.562-.873c4.117.855 9.771-.032 12.467.815m89.727-3.267c5.783 2.37 11.725-.852 13.398-.29m-11.198-1.318c3.756-1.781 8.713.006 12.451.094m1.389.404c-1.825-15.059-.278-27.908-2.359-48.507m1.881 48.164c.144-10.752-.808-24.66-.738-48.378"/>
    </g>
    <defs xmlns="http://www.w3.org/2000/svg">
        <filter id="dsFilterNoBlur" width="150%" height="150%">
            <feOffset dx="3" dy="3" in="SourceGraphic" result="offOut"/>
            <feColorMatrix in="offOut" result="matrixOut" type="matrix" values="0.2 0 0 0 0 0 0.2 0 0 0 0 0 0.2 0 0 0 0 0 1 0"/>
            <feBlend in="SourceGraphic" in2="matrixOut" mode="normal"/>
        </filter>
        <filter id="dsFilter" width="150%" height="150%">
            <feOffset dx="3" dy="3" in="SourceGraphic" result="offOut"/>
            <feColorMatrix in="offOut" result="matrixOut" type="matrix" values="0.2 0 0 0 0 0 0.2 0 0 0 0 0 0.2 0 0 0 0 0 1 0"/>
            <feGaussianBlur in="matrixOut" result="blurOut" stdDeviation="3"/>
            <feBlend in="SourceGraphic" in2="blurOut" mode="normal"/>
        </filter>
        <marker id="iPointer-24w9r5y8588" fill="#000" markerHeight="7" markerUnits="strokeWidth" markerWidth="8" orient="auto" refX="5" refY="5" viewBox="0 0 10 10">
            <path d="M10 0v10L0 5z"/>
        </marker>
        <marker id="Pointer-24w9r5y8588" fill="#000" markerHeight="7" markerUnits="strokeWidth" markerWidth="8" orient="auto" refX="5" refY="5" viewBox="0 0 10 10">
            <path d="M0 0l10 5-10 5z"/>
        </marker>
    </defs>
    <defs>
        <style type="text/css">
            @font-face{font-family:&quot;xkcd Script&quot;;src:url(./xkcd-script.ttf)}
        </style>
    </defs>
    <g xmlns="http://www.w3.org/2000/svg" id="lines-24w9r5y8588" fill="none" stroke="#000" stroke-width="2" transform="scale(.75)">
        <g id="group171">
            <path id="path171" marker-end="url(#Pointer-24w9r5y8588)" marker-start="url(#iPointer-24w9r5y8588)" d="M58.5 184v64h18"/>
        </g>
        <g id="group520">
            <path id="path520" marker-end="url(#Pointer-24w9r5y8588)" marker-start="url(#iPointer-24w9r5y8588)" d="M193.5 248h18v-64"/>
        </g>
    </g>
    <text id="text0" x="12.825" y="33.6" fill="#000" stroke="none" font-family="xkcd Script" font-size="15">
        Cluster
    </text>
    <text id="text1" x="26.325" y="81.6" fill="#fff" stroke="none" font-family="xkcd Script" font-size="15">
        Boeing
    </text>
    <text id="text2" x="127.575" y="81.6" fill="#fff" stroke="none" font-family="xkcd Script" font-size="15">
        Airbus
    </text>
    <text id="text3" x="73.575" y="177.6" fill="#000" stroke="none" font-family="xkcd Script" font-size="15">
        Router
    </text>
</svg>
